<svg xmlns="http://www.w3.org/2000/svg" xmlns:xlink="http://www.w3.org/1999/xlink">

<symbol id="facebook" fill-rule="evenodd" clip-rule="evenodd" stroke-linejoin="round" stroke-miterlimit="1.414"><path d="M15.117 0H.883C.395 0 0 .395 0 .883v14.234c0 .488.395.883.883.883h7.663V9.804H6.46V7.39h2.086V5.607c0-2.066 1.262-3.19 3.106-3.19.883 0 1.642.064 1.863.094v2.16h-1.28c-1 0-1.195.48-1.195 1.18v1.54h2.39l-.31 2.42h-2.08V16h4.077c.488 0 .883-.395.883-.883V.883C16 .395 15.605 0 15.117 0" fill-rule="nonzero"/></symbol>

<symbol id="github" fill-rule="evenodd" clip-rule="evenodd" stroke-linejoin="round" stroke-miterlimit="1.414"><path d="M8 0C3.58 0 0 3.582 0 8c0 3.535 2.292 6.533 5.47 7.59.4.075.547-.172.547-.385 0-.19-.007-.693-.01-1.36-2.226.483-2.695-1.073-2.695-1.073-.364-.924-.89-1.17-.89-1.17-.725-.496.056-.486.056-.486.803.056 1.225.824 1.225.824.714 1.223 1.873.87 2.33.665.072-.517.278-.87.507-1.07-1.777-.2-3.644-.888-3.644-3.953 0-.873.31-1.587.823-2.147-.09-.202-.36-1.015.07-2.117 0 0 .67-.215 2.2.82.64-.178 1.32-.266 2-.27.68.004 1.36.092 2 .27 1.52-1.035 2.19-.82 2.19-.82.43 1.102.16 1.915.08 2.117.51.56.82 1.274.82 2.147 0 3.073-1.87 3.75-3.65 3.947.28.24.54.73.54 1.48 0 1.07-.01 1.93-.01 2.19 0 .21.14.46.55.38C13.71 14.53 16 11.53 16 8c0-4.418-3.582-8-8-8"/></symbol>

<symbol id="gmail" aria-labelledby="simpleicons-gmail-icon" role="img" viewBox="0 0 24 24"><title id="simpleicons-gmail-icon">Gmail icon</title><path d="M24 4.5v15c0 .85-.65 1.5-1.5 1.5H21V7.387l-9 6.463-9-6.463V21H1.5C.649 21 0 20.35 0 19.5v-15c0-.425.162-.8.431-1.068C.7 3.16 1.076 3 1.5 3H2l10 7.25L22 3h.5c.425 0 .8.162 1.069.432.27.268.431.643.431 1.068z"/></symbol>

<symbol id="paypal" aria-labelledby="simpleicons-paypal-icon" role="img" viewBox="0 0 24 24"><title id="simpleicons-paypal-icon">PayPal icon</title><path d="M6.908 24H3.804c-.664 0-1.086-.529-.936-1.18l.149-.674h2.071c.666 0 1.336-.533 1.482-1.182l1.064-4.592c.15-.648.816-1.18 1.48-1.18h.883c3.789 0 6.734-.779 8.84-2.34s3.16-3.6 3.16-6.135c0-1.125-.195-2.055-.588-2.789 0-.016-.016-.031-.016-.046l.135.075c.75.465 1.32 1.064 1.711 1.814.404.75.598 1.68.598 2.791 0 2.535-1.049 4.574-3.164 6.135-2.1 1.545-5.055 2.324-8.834 2.324h-.9c-.66 0-1.334.525-1.484 1.186L8.39 22.812c-.149.645-.81 1.17-1.47 1.17L6.908 24zm-2.677-2.695H1.126c-.663 0-1.084-.529-.936-1.18L4.563 1.182C4.714.529 5.378 0 6.044 0h6.465c1.395 0 2.609.098 3.648.289 1.035.189 1.92.519 2.684.99.736.465 1.322 1.072 1.697 1.818.389.748.584 1.68.584 2.797 0 2.535-1.051 4.574-3.164 6.119-2.1 1.561-5.056 2.326-8.836 2.326h-.883c-.66 0-1.328.524-1.478 1.169L5.7 20.097c-.149.646-.817 1.172-1.485 1.172l.016.036zm7.446-17.369h-1.014c-.666 0-1.332.529-1.48 1.178l-.93 4.02c-.15.648.27 1.179.93 1.179h.766c1.664 0 2.97-.343 3.9-1.021.929-.686 1.395-1.654 1.395-2.912 0-.83-.301-1.445-.9-1.84-.6-.404-1.5-.605-2.686-.605l.019.001z"/></symbol>

<svg id="tea" enable-background="new 0 0 512 512" version="1.1" viewBox="0 0 512 512">
<g transform="translate(1 1)">
            <path d="m455.83 440.38h-107.9c27.389-10.951 48.357-26.522 64.359-45.36 65.428-9.791 94.74-63.816 94.74-113.54 0-35.246-19.627-64.674-45.028-69.82 2e-3 -0.267 5e-3 -0.534 7e-3 -0.8 0-4.414-1.766-8.828-5.297-12.359-2.648-3.531-7.945-5.297-12.359-5.297h-406.07c-4.414 0-8.828 1.766-12.359 5.297s-5.297 7.945-5.297 12.359c0.684 94.343 17.253 190.8 114.08 229.52h-108.78c-12.359 0-22.952 10.593-22.952 22.952 0 10.593 7.062 18.538 20.303 21.186l111.23 8.828c4.414 0 5.297 1.766 6.179 3.531 4.414 8.828 13.241 14.124 22.952 14.124h146.54c9.71 0 18.538-5.297 21.186-14.124 0.883-1.766 2.648-3.531 6.179-3.531l120.94-8.828h0.883c12.359-2.648 19.421-10.593 19.421-21.186 0-12.359-9.71-22.952-22.951-22.952zm32.662-158.9c0 34.428-15.89 75.917-60.028 90.924 26.483-43.255 31.779-96.221 33.545-142.12 15.007 5.296 26.483 26.483 26.483 51.2zm-141.24-22.952l26.483 26.483v58.262h-52.966v-58.262l26.483-26.483zm-308.96-47.669h300.14v31.779l-32.662 32.662c-1.766 1.766-2.648 3.531-2.648 6.179v70.621c0 5.297 3.531 8.828 8.828 8.828h70.621c5.297 0 8.828-3.531 8.828-8.828v-70.621c0-2.648-0.883-4.414-2.648-6.179l-32.662-32.662v-31.779h88.276c-0.883 119.17-26.483 229.52-203.03 229.52s-202.15-110.34-203.04-229.52zm420.19 256l-120.06 8.828c-8.828 0.883-16.772 5.297-20.303 13.241-1.766 2.648-4.414 4.414-7.062 4.414h-147.42c-2.648 0-5.297-1.766-7.062-4.414-3.531-7.945-11.476-12.359-20.303-13.241l-111.23-8.828c-4.414-0.883-4.414-2.648-4.414-3.531 0-2.648 2.648-5.297 5.297-5.297h431.67c2.648 0 5.297 2.648 5.297 5.297 0 0.883 0 2.648-4.414 3.531z"/>
            <path d="m226.31 72.269c-13.241 13.241-20.303 26.483-20.303 40.607s7.062 28.248 20.303 42.372c1.766 1.766 3.531 2.648 6.179 2.648 1.766 0 4.414-0.883 6.179-2.648 3.531-3.531 3.531-8.828 0-12.359-9.71-10.593-15.007-20.303-15.007-30.014s5.297-19.421 15.007-28.248c13.241-12.359 20.303-26.483 20.303-40.607 0-15.007-7.062-29.131-20.303-42.372-3.531-3.531-8.828-3.531-12.359 0s-3.531 8.828 0 12.359c9.71 10.593 15.007 20.303 15.007 30.014s-5.295 19.42-15.006 28.248z"/>
            <path d="m332.24 72.269c-13.241 13.241-20.303 26.483-20.303 40.607s7.062 28.248 20.303 42.372c1.766 1.766 3.531 2.648 6.179 2.648 1.766 0 4.414-0.883 6.179-2.648 3.531-3.531 3.531-8.828 0-12.359-9.71-10.593-15.007-20.303-15.007-30.014s5.297-19.421 15.007-28.248c13.241-12.359 20.303-26.483 20.303-40.607 0-15.007-7.062-29.131-20.303-42.372-3.531-3.531-8.828-3.531-12.359 0s-3.531 8.828 0 12.359c9.71 10.593 15.007 20.303 15.007 30.014s-5.295 19.42-15.006 28.248z"/>
            <path d="m138.03 72.269c-13.241 13.241-20.303 26.483-20.303 40.607s7.062 28.248 20.303 42.372c1.766 1.766 3.531 2.648 6.179 2.648 1.766 0 4.414-0.883 6.179-2.648 3.531-3.531 3.531-8.828 0-12.359-9.71-10.593-15.007-20.303-15.007-30.014s5.297-19.421 15.007-28.248c13.241-12.359 20.303-26.483 20.303-40.607 0-15.007-7.062-29.131-20.303-42.372-3.531-3.531-8.828-3.531-12.359 0s-3.531 8.828 0 12.359c9.71 10.593 15.007 20.303 15.007 30.014s-5.295 19.42-15.006 28.248z"/>
            <path d="m190.12 396.24c-62.676-10.593-94.455-45.903-107.7-116.52-0.883-4.414-6.179-7.945-10.593-7.062s-7.945 6.179-7.062 10.593c14.124 78.565 52.083 118.29 121.82 130.65h1.766c4.414 0 7.945-2.648 8.828-7.062 0.882-5.296-2.649-9.71-7.063-10.593z"/>
</g>
</svg>

</svg>
